:SAMPLES-PER-SECOND 30
:FULLY-SPECIFIED
:DEGREES
167
root  1.23563 38.9921 5.53692 -75.7538 -84.5331 68.7036
RightUpLeg  -7.51446 2.57098 -13.7223
RightLeg  54.1542 0.227573 -0.0501391
RightFoot  -1.68992 -0.941079 10.9773
RightToes  4.6566e-010 0 -3.6325e-017
Spine  6.62834 0.00813617 -4.79359
Spine1  10.821 -0.415338 -2.64526
HEad  -4.57143 0.191773 -4.51042
LeftShoulder1  -0.494626 4.92396 -28.6132
LeftArm  -6.95072 7.45981 -44.9519
LeftForeArm  23.407 -17.2069 -4.47356
LeftHand  -0.11626 1.31703 3.22624
RightShoulder  -0.646676 -5.48033 26.0092
RightArm  6.24006 -1.56462 49.182
RightForeArm  15.665 26.0511 4.75768
RightHand  -0.441071 4.44925 -5.49444
LeftUpLeg  -5.14336 6.57068 -6.01277
LeftLeg  18.3637 1.18433 -0.456692
LeftFoot  -5.38082 -0.281691 6.02724
LeftToes  -4.59298e-010 2.08438e-011 -1.27151e-011
168
root  0.801699 39.1269 5.69213 -71.913 -85.1218 65.1123
RightUpLeg  -9.97851 1.18789 -12.2269
RightLeg  52.3095 -0.889974 -1.59635
RightFoot  -2.65928 -0.873694 11.2348
RightToes  4.6566e-010 0 -3.6325e-017
Spine  6.90173 -0.285178 -4.93778
Spine1  10.2976 -0.676422 -2.62691
HEad  -4.54119 -1.24231 -3.5077
LeftShoulder1  -0.406679 4.70889 -27.5681
LeftArm  -6.34814 7.08658 -45.5046
LeftForeArm  22.5001 -18.012 -4.37929
LeftHand  -0.103874 2.75619 3.99911
RightShoulder  -0.684375 -5.57221 26.4051
RightArm  8.0039 -2.08691 49.8606
RightForeArm  15.8153 26.8471 4.9282
RightHand  -0.403716 4.85125 -4.87388
LeftUpLeg  -4.09512 6.14792 -5.46281
LeftLeg  17.2567 1.37545 -0.551022
LeftFoot  -5.67334 -0.272664 6.19342
LeftToes  -4.59298e-010 2.08438e-011 -1.27151e-011
169
root  0.381891 39.2556 5.84215 -72.0547 -85.8605 65.5901
RightUpLeg  -12.0439 0.367139 -10.5079
RightLeg  48.4814 -1.90386 -2.63724
RightFoot  -3.47842 -0.792858 11.1539
RightToes  4.6566e-010 0 -3.6325e-017
Spine  6.8231 -0.37268 -5.20032
Spine1  10.3187 -0.835597 -1.95125
HEad  -4.82302 -1.3262 -3.06022
LeftShoulder1  -0.433826 4.77784 -27.8619
LeftArm  -6.30246 6.4167 -45.1053
LeftForeArm  21.4766 -19.1837 -4.13317
LeftHand  -0.104268 2.74055 4.039
RightShoulder  -0.632397 -5.43578 26.024
RightArm  10.0694 -2.15392 50.7933
RightForeArm  15.0815 26.5346 4.89826
RightHand  -0.409233 4.08259 -5.27631
LeftUpLeg  -3.10146 6.13669 -4.82583
LeftLeg  16.0376 1.6091 -0.693818
LeftFoot  -5.97529 -0.261344 6.33764
LeftToes  -4.59298e-010 2.08438e-011 -1.27151e-011
170
root  -0.0450228 39.3433 5.95388 -75.748 -86.6207 69.9231
RightUpLeg  -13.8959 0.401885 -8.65491
RightLeg  42.9168 -2.15763 -2.45296
RightFoot  -3.79547 -0.750932 10.9711
RightToes  4.6566e-010 0 -3.6325e-017
Spine  6.70431 -0.484146 -4.96787
Spine1  9.9841 -0.750086 -2.19251
HEad  -5.66267 -0.78843 -2.47193
LeftShoulder1  -0.449083 4.81416 -28.082
LeftArm  -5.87714 6.35782 -44.1605
LeftForeArm  20.0902 -20.9633 -3.95049
LeftHand  -0.109118 2.51312 3.97724
RightShoulder  -0.647842 -5.47311 26.191
RightArm  13.2253 -1.79717 51.1446
RightForeArm  13.4129 25.4248 4.73822
RightHand  -0.441793 4.64975 -5.38799
LeftUpLeg  -2.53974 6.34702 -4.14569
LeftLeg  15.1089 1.81905 -0.936334
LeftFoot  -6.51869 -0.227133 6.3231
LeftToes  -4.59298e-010 2.08438e-011 -1.27151e-011
171
root  -0.469614 39.4007 6.07079 -80.2506 -86.9164 75.1006
RightUpLeg  -15.2646 0.188829 -7.40734
RightLeg  36.3818 -1.66979 -1.57032
RightFoot  -4.09254 -0.762151 11.5533
RightToes  4.6566e-010 0 -3.6325e-017
Spine  6.55369 -0.538276 -5.43058
Spine1  9.6218 -0.811027 -1.70636
HEad  -6.51603 -0.0372336 -2.57479
LeftShoulder1  -0.464248 4.8428 -28.4968
LeftArm  -6.87268 6.71514 -43.5589
LeftForeArm  20.2251 -22.7399 -3.88961
LeftHand  -0.134178 1.76334 4.04886
RightShoulder  -0.581614 -5.29708 25.6896
RightArm  15.4809 -1.60448 51.8868
RightForeArm  12.8468 23.4413 4.36692
RightHand  -0.372322 4.24333 -4.76479
LeftUpLeg  -2.05897 6.3434 -3.99245
LeftLeg  14.1945 2.01064 -1.10942
LeftFoot  -6.94525 -0.202498 6.35708
LeftToes  -4.59298e-010 2.08438e-011 -1.27151e-011
172
root  -0.931114 39.4667 6.20846 -84.3931 -86.9625 79.5473
RightUpLeg  -15.757 0.0932126 -6.40838
RightLeg  29.5171 -1.02236 -0.862716
RightFoot  -3.60082 -0.777653 11.0989
RightToes  4.6566e-010 0 -3.6325e-017
Spine  6.44842 -0.596082 -5.18237
Spine1  9.65741 -0.629715 -2.07894
HEad  -6.95811 -1.01932 -2.22396
LeftShoulder1  -0.435947 4.7618 -28.4823
LeftArm  -6.96582 6.82834 -43.0233
LeftForeArm  19.5594 -23.8601 -4.0667
LeftHand  -0.15937 1.71042 4.83954
RightShoulder  -0.585575 -5.312 25.6335
RightArm  16.8763 -1.45082 52.201
RightForeArm  12.6317 21.2758 4.23847
RightHand  -0.363454 3.88155 -4.80036
LeftUpLeg  -0.831886 6.28159 -4.13156
LeftLeg  12.7028 2.3075 -1.16526
LeftFoot  -7.28124 -0.17432 6.15284
LeftToes  -4.59298e-010 2.08438e-011 -1.27151e-011
173
root  -1.40583 39.5218 6.29774 -88.1213 -87.1542 83.7799
RightUpLeg  -16.0242 -0.0952582 -5.27904
RightLeg  22.4929 0.0201295 -0.18766
RightFoot  -3.26484 -0.783221 10.7461
RightToes  4.6566e-010 0 -3.6325e-017
Spine  6.09828 -0.714805 -4.60718
Spine1  9.86194 -0.455771 -2.62505
HEad  -7.32629 -1.24082 -2.38303
LeftShoulder1  -0.443471 4.79763 -28.0879
LeftArm  -7.0744 6.63128 -43.0692
LeftForeArm  19.7507 -23.7665 -4.04555
LeftHand  -0.156244 2.06225 5.16378
RightShoulder  -0.620987 -5.39293 26.1557
RightArm  16.8123 -1.12241 51.9444
RightForeArm  13.4222 18.7943 4.53397
RightHand  -0.289177 3.15954 -4.17046
LeftUpLeg  0.0488644 6.50865 -3.92137
LeftLeg  11.5176 2.12916 -1.4481
LeftFoot  -7.74114 -0.148645 6.20707
LeftToes  -4.59298e-010 2.08438e-011 -1.27151e-011
